<svg width="24" height="24" viewBox="0 0 24 24" fill="none" xmlns="http://www.w3.org/2000/svg">
<path d="M21.3819 2.08014C21.1998 2.00356 20.9991 1.98264 20.8051 2.02001C20.6111 2.05739 20.4325 2.15138 20.2919 2.29014L13.0019 9.59014V3.00014C13.0009 2.80271 12.9415 2.61 12.8312 2.44628C12.7208 2.28256 12.5645 2.15516 12.3819 2.08014C12.1998 2.00356 11.9991 1.98264 11.8051 2.02001C11.6111 2.05739 11.4325 2.15138 11.2919 2.29014L2.29189 11.2901C2.19816 11.3831 2.12377 11.4937 2.073 11.6156C2.02223 11.7374 1.99609 11.8681 1.99609 12.0001C1.99609 12.1322 2.02223 12.2629 2.073 12.3847C2.12377 12.5066 2.19816 12.6172 2.29189 12.7101L11.2919 21.7101C11.3853 21.8028 11.4961 21.8761 11.618 21.9259C11.7398 21.9757 11.8703 22.0009 12.0019 22.0001C12.1331 22.0035 12.2632 21.9761 12.3819 21.9201C12.5645 21.8451 12.7208 21.7177 12.8312 21.554C12.9415 21.3903 13.0009 21.1976 13.0019 21.0001V14.4101L20.2919 21.7101C20.3853 21.8028 20.4961 21.8761 20.618 21.9259C20.7398 21.9757 20.8703 22.0009 21.0019 22.0001C21.1331 22.0035 21.2632 21.9761 21.3819 21.9201C21.5645 21.8451 21.7208 21.7177 21.8312 21.554C21.9415 21.3903 22.0009 21.1976 22.0019 21.0001V3.00014C22.0009 2.80271 21.9415 2.61 21.8312 2.44628C21.7208 2.28256 21.5645 2.15516 21.3819 2.08014ZM11.0019 18.5901L4.41189 12.0001L11.0019 5.41014V18.5901ZM20.0019 18.5901L13.4119 12.0001L20.0019 5.41014V18.5901Z" fill="black"/>
</svg>
