<svg width="34" height="34" viewBox="0 0 34 34" fill="none" xmlns="http://www.w3.org/2000/svg">
<path d="M10.625 3.98438H6.64062C3.7066 3.98438 1.32812 6.36285 1.32812 9.29688V11.9531H5.3125V9.29688C5.3125 6.36285 7.69097 3.98438 10.625 3.98438Z" fill="#444444"/>
<path d="M25.2344 2.65625H23.9062V1.32812C23.9062 0.594602 23.3116 0 22.5781 0C21.8446 0 21.25 0.594602 21.25 1.32812V2.65625H10.625V1.32812C10.625 0.594602 10.0304 0 9.29688 0C8.56335 0 7.96875 0.594602 7.96875 1.32812V2.65625H6.64062C2.97898 2.65625 0 5.63523 0 9.29688V25.2344C0 28.896 2.97898 31.875 6.64062 31.875H13.0623C13.7958 31.875 14.3904 31.2804 14.3904 30.5469C14.3904 29.8134 13.7958 29.2188 13.0623 29.2188H6.64062C4.44364 29.2188 2.65625 27.4314 2.65625 25.2344V13.2812H30.5469C31.2804 13.2812 31.875 12.6866 31.875 11.9531V9.29688C31.875 5.63523 28.8961 2.65625 25.2344 2.65625ZM29.2188 10.625H2.65625V9.29688C2.65625 7.09989 4.44364 5.3125 6.64062 5.3125H7.96875V6.64062C7.96875 7.37415 8.56335 7.96875 9.29688 7.96875C10.0304 7.96875 10.625 7.37415 10.625 6.64062V5.3125H21.25V6.64062C21.25 7.37415 21.8446 7.96875 22.5781 7.96875C23.3116 7.96875 23.9062 7.37415 23.9062 6.64062V5.3125H25.2344C27.4314 5.3125 29.2188 7.09989 29.2188 9.29688V10.625Z" fill="white"/>
<path d="M6.64062 18.5938C7.37413 18.5938 7.96875 17.9991 7.96875 17.2656C7.96875 16.5321 7.37413 15.9375 6.64062 15.9375C5.90712 15.9375 5.3125 16.5321 5.3125 17.2656C5.3125 17.9991 5.90712 18.5938 6.64062 18.5938Z" fill="white"/>
<path d="M11.9531 18.5938C12.6866 18.5938 13.2812 17.9991 13.2812 17.2656C13.2812 16.5321 12.6866 15.9375 11.9531 15.9375C11.2196 15.9375 10.625 16.5321 10.625 17.2656C10.625 17.9991 11.2196 18.5938 11.9531 18.5938Z" fill="white"/>
<path d="M6.64062 23.9062C7.37413 23.9062 7.96875 23.3116 7.96875 22.5781C7.96875 21.8446 7.37413 21.25 6.64062 21.25C5.90712 21.25 5.3125 21.8446 5.3125 22.5781C5.3125 23.3116 5.90712 23.9062 6.64062 23.9062Z" fill="white"/>
<path d="M11.9531 23.9062C12.6866 23.9062 13.2812 23.3116 13.2812 22.5781C13.2812 21.8446 12.6866 21.25 11.9531 21.25C11.2196 21.25 10.625 21.8446 10.625 22.5781C10.625 23.3116 11.2196 23.9062 11.9531 23.9062Z" fill="white"/>
<path d="M24.7031 15.4062C19.5768 15.4062 15.4062 19.5768 15.4062 24.7031C15.4062 29.8294 19.5768 34 24.7031 34C29.8294 34 34 29.8294 34 24.7031C34 19.5768 29.8294 15.4062 24.7031 15.4062ZM24.7031 31.3438C21.0414 31.3438 18.0625 28.3648 18.0625 24.7031C18.0625 21.0415 21.0414 18.0625 24.7031 18.0625C28.3648 18.0625 31.3438 21.0415 31.3438 24.7031C31.3438 28.3648 28.3648 31.3438 24.7031 31.3438Z" fill="#D8AF1F"/>
<path d="M27.3594 23.375H26.0312V22.0469C26.0312 21.3134 25.4366 20.7188 24.7031 20.7188C23.9696 20.7188 23.375 21.3134 23.375 22.0469V24.7031C23.375 25.4366 23.9696 26.0312 24.7031 26.0312H27.3594C28.0929 26.0312 28.6875 25.4366 28.6875 24.7031C28.6875 23.9696 28.0929 23.375 27.3594 23.375Z" fill="#D8AF1F"/>
</svg>
