<svg width="274" height="188" viewBox="0 0 274 188" fill="none" xmlns="http://www.w3.org/2000/svg">
<path d="M44.391 36.7305L61.7922 54.2536L86.2728 45.1156L87.2389 51.1117L76.6378 72.5601L86.4099 88.5673L85.5911 93.3453L61.9035 89.4082L47.9007 104.593L44.6136 102.125L41.7103 82.8199L19.6123 71.4536L18.6445 67.0496L40.895 61.0314L44.391 36.7305Z" fill="#FFC600"/>
<g opacity="0.3">
<path d="M44.391 36.7305L61.7922 54.2536L86.2728 45.1156L87.2389 51.1117L76.6378 72.5601L86.4099 88.5673L85.5911 93.3453L61.9035 89.4082L47.9007 104.593L44.6136 102.125L41.7103 82.8199L19.6123 71.4536L18.6445 67.0496L40.895 61.0314L44.391 36.7305Z" fill="black"/>
</g>
<path d="M44.391 31.8154L61.7922 49.3403L86.2728 45.1156L74.7776 66.8769L86.4099 88.5673L61.9036 84.4931L44.6136 102.125L40.9635 77.8439L18.6445 67.0495L40.895 56.1181L44.391 31.8154Z" fill="#FFC600"/>
<path d="M227.914 36.7305L210.513 54.2536L186.034 45.1156L185.066 51.1117L195.667 72.5601L185.897 88.5673L186.714 93.3453L210.402 89.4082L224.405 104.593L227.693 102.125L230.595 82.8199L252.695 71.4536L253.661 67.0496L231.412 61.0314L227.914 36.7305Z" fill="#FFC600"/>
<g opacity="0.3">
<path d="M227.914 36.7305L210.513 54.2536L186.034 45.1156L185.066 51.1117L195.667 72.5601L185.897 88.5673L186.714 93.3453L210.402 89.4082L224.405 104.593L227.693 102.125L230.595 82.8199L252.695 71.4536L253.661 67.0496L231.412 61.0314L227.914 36.7305Z" fill="black"/>
</g>
<path d="M227.908 31.8154L210.507 49.3403L186.028 45.1156L197.523 66.8769L185.891 88.5673L210.395 84.4931L227.687 102.125L231.337 77.8439L253.654 67.0495L231.406 56.1181L227.908 31.8154Z" fill="#FFC600"/>
<path d="M133.975 5.99316L148.449 33.9216L181.84 31.981L180.708 39.6639L159.503 61.8415L165.251 85.0495L162.409 90.5702L135.029 76.8539L112.088 90.1117L109.029 85.8633L112.933 61.2172L90.3516 39.0362L90.8706 33.299L120.337 34.3293L133.975 5.99316Z" fill="#FFC600"/>
<g opacity="0.3">
<path d="M133.975 5.99316L148.449 33.9216L181.84 31.981L180.708 39.6639L159.503 61.8415L165.251 85.0495L162.409 90.5702L135.029 76.8539L112.088 90.1117L109.029 85.8633L112.933 61.2172L90.3516 39.0362L90.8706 33.299L120.337 34.3293L133.975 5.99316Z" fill="black"/>
</g>
<path d="M135.868 0L150.34 27.9267L181.837 31.9822L159.42 54.2089L165.247 85.0508L136.92 70.8607L109.025 85.8646L113.934 54.8688L90.8669 33.3002L122.23 28.3345L135.868 0Z" fill="#FFC600"/>
<g clip-path="url(#clip0_472_6974)">
<path d="M12.586 187.997C12.8293 188.237 59.5359 172.406 59.5359 172.406L41.5768 131.769L0 147.442L22.8708 160.399L12.586 187.997Z" fill="#313030"/>
<path d="M34.4946 144.014V88.6798C34.4946 88.6798 98.9282 77.066 145.348 77.7498C191.768 78.4335 239.574 85.9476 239.574 85.9476V139.069C239.574 139.069 94.0784 126.253 34.4946 144.014Z" fill="#313030"/>
<path d="M34.1599 144.061L59.5359 172.646V139.069C59.5359 139.069 38.3107 141.573 34.1599 144.061Z" fill="#3F3F41"/>
<path d="M261.414 183.753C261.171 183.993 214.464 168.162 214.464 168.162L232.423 127.523L274 143.198L251.129 156.156L261.414 183.753Z" fill="#313030"/>
<path d="M239.84 139.817L214.464 168.402V137.254C222.923 137.533 231.381 138.387 239.84 139.817Z" fill="#3F3F41"/>
<path d="M70.8322 112.943C70.2119 108.531 73.2036 104.904 77.8256 104.272C80.3912 103.921 82.6628 104.548 84.2973 106.03L82.3745 108.338C81.2197 107.345 79.8849 106.931 78.4009 107.134C75.6229 107.514 73.921 109.707 74.3092 112.467C74.6974 115.227 76.9409 116.881 79.7175 116.501C81.2014 116.298 82.3703 115.542 83.2058 114.256L85.694 115.962C84.5322 117.847 82.5208 119.06 79.9327 119.414C75.3318 120.042 71.4525 117.354 70.8322 112.943Z" fill="white"/>
<path d="M86.1836 110.859C85.7279 106.493 88.8406 102.909 93.5456 102.432C98.2295 101.958 102.034 104.818 102.491 109.204C102.95 113.592 99.8133 117.155 95.1294 117.631C90.4258 118.108 86.6393 115.225 86.1836 110.859ZM99.0017 109.559C98.7105 106.768 96.5106 105.059 93.8494 105.329C91.1882 105.598 89.3863 107.712 89.6775 110.504C89.9687 113.296 92.1685 115.003 94.8312 114.734C97.491 114.463 99.2928 112.351 99.0017 109.559Z" fill="white"/>
<path d="M119.332 115.48L118.734 106.638L114.811 114.202L113.253 114.301L108.413 107.482L108.977 116.136L105.731 116.341L104.767 101.603L107.628 101.421L113.821 110.226L118.733 100.716L121.574 100.536L122.578 115.273L119.332 115.48Z" fill="white"/>
<path d="M138.696 105.389C138.789 108.68 136.345 110.795 132.343 110.907L129.326 110.99L129.443 115.064L125.977 115.159L125.556 100.39L132.04 100.212C136.041 100.099 138.602 102.077 138.696 105.389ZM135.187 105.486C135.141 103.862 134.043 102.942 131.925 103.001L129.101 103.08L129.247 108.207L132.071 108.128C134.19 108.068 135.233 107.089 135.187 105.486Z" fill="white"/>
<path d="M141.33 100.021H144.796V112.006H152.307V114.79H141.33V100.021Z" fill="white"/>
<path d="M165.813 112.422L165.733 115.165L154.134 114.832L154.57 100.063L165.891 100.388L165.809 103.131L157.934 102.905L157.84 106.113L164.796 106.313L164.717 108.971L157.761 108.772L157.66 112.19L165.813 112.422Z" fill="white"/>
<path d="M172.216 103.528L167.434 103.244L167.604 100.465L180.632 101.239L180.462 104.018L175.678 103.734L174.947 115.694L171.486 115.489L172.216 103.528Z" fill="white"/>
<path d="M193.247 114.447L192.99 117.179L181.439 116.123L182.82 101.414L194.096 102.445L193.838 105.177L185.995 104.46L185.695 107.654L192.621 108.287L192.372 110.935L185.447 110.303L185.126 113.707L193.247 114.447Z" fill="white"/>
<path d="M197.577 102.812L204.32 103.701C209.176 104.34 212.114 107.664 211.513 112.097C210.913 116.529 207.194 118.976 202.335 118.336L195.592 117.447L197.577 102.812ZM202.545 115.533C205.493 115.922 207.658 114.441 208.036 111.639C208.417 108.836 206.721 106.847 203.774 106.459L200.638 106.046L199.408 115.12L202.545 115.533Z" fill="white"/>
</g>
<defs>
<clipPath id="clip0_472_6974">
<rect width="274" height="110.279" fill="white" transform="translate(0 77.7207)"/>
</clipPath>
</defs>
</svg>
