<svg width="18" height="18" viewBox="0 0 18 18" fill="none" xmlns="http://www.w3.org/2000/svg">
<rect width="18" height="18" fill="white"/>
<path d="M4.15499 15.39C3.69749 15.39 3.26999 15.2325 2.96249 14.94C2.57249 14.5725 2.38499 14.0175 2.45249 13.4175L2.72999 10.9875C2.78249 10.53 3.05999 9.92254 3.38249 9.59254L9.53999 3.07504C11.0775 1.44754 12.6825 1.40254 14.31 2.94004C15.9375 4.47754 15.9825 6.08254 14.445 7.71004L8.28749 14.2275C7.97249 14.565 7.38749 14.88 6.92999 14.955L4.51499 15.3675C4.38749 15.375 4.27499 15.39 4.15499 15.39ZM11.9475 2.93254C11.37 2.93254 10.8675 3.29254 10.3575 3.83254L4.19999 10.3575C4.04999 10.515 3.87749 10.89 3.84749 11.1075L3.56999 13.5375C3.53999 13.785 3.59999 13.9875 3.73499 14.115C3.86999 14.2425 4.07249 14.2875 4.31999 14.25L6.73499 13.8375C6.95249 13.8 7.31249 13.605 7.46249 13.4475L13.62 6.93004C14.55 5.94004 14.8875 5.02504 13.53 3.75004C12.93 3.17254 12.4125 2.93254 11.9475 2.93254Z" fill="black"/>
<path d="M13.0048 8.96257C12.9898 8.96257 12.9673 8.96257 12.9523 8.96257C10.6123 8.73007 8.72984 6.95257 8.36984 4.62757C8.32484 4.32007 8.53484 4.03507 8.84234 3.98257C9.14984 3.93757 9.43484 4.14757 9.48734 4.45507C9.77234 6.27007 11.2423 7.66507 13.0723 7.84507C13.3798 7.87507 13.6048 8.15257 13.5748 8.46007C13.5373 8.74507 13.2898 8.96257 13.0048 8.96257Z" fill="black"/>
</svg>
