<svg width="34" height="34" viewBox="0 0 34 34" fill="none" xmlns="http://www.w3.org/2000/svg">
<g clip-path="url(#clip0_472_6699)">
<path d="M6.70734 23.6386L6.04527 24.3047L3.38702 21.6464C2.34969 20.6091 2.34969 18.9272 3.38702 17.89C4.42436 16.8526 6.10623 16.8526 7.14349 17.89L8.36723 19.1136C7.76193 19.1632 7.17039 19.419 6.70727 19.8821C5.67 20.9194 5.67 22.6013 6.70734 23.6386ZM5.42649 26.1452C5.88961 25.6821 6.48116 25.4263 7.08645 25.3767L5.86271 24.153C4.82538 23.1157 3.14351 23.1157 2.10625 24.153C1.06891 25.1903 1.06891 26.8722 2.10625 27.9095L4.76455 30.5678L5.42656 29.9017C4.38916 28.8644 4.38916 27.1825 5.42649 26.1452ZM21.1839 5.40552C21.647 4.9424 22.2386 4.68667 22.8439 4.63707L21.6201 3.41333C20.5828 2.376 18.9009 2.376 17.8637 3.41333C16.8263 4.45066 16.8263 6.13253 17.8637 7.1698L20.5218 9.82811L21.1838 9.16199C20.1466 8.12472 20.1466 6.44285 21.1839 5.40552ZM27.4734 4.09831C27.9365 3.63519 28.528 3.37946 29.1333 3.32986L27.9096 2.10612C26.8723 1.06879 25.1904 1.06879 24.1531 2.10612C23.1158 3.14346 23.1158 4.82533 24.1531 5.86259L26.8114 8.5209L27.4734 7.85478C26.436 6.81751 26.436 5.13564 27.4734 4.09831Z" fill="#444444"/>
<path d="M1.32814 34.0001C0.988208 34.0001 0.648341 33.8705 0.389024 33.6111C-0.129675 33.0924 -0.129675 32.2515 0.389024 31.7328L2.22011 29.9018L1.16704 28.8488C0.414458 28.0962 1.66083e-05 27.0956 1.66083e-05 26.0313C1.66083e-05 24.967 0.414458 23.9665 1.16704 23.2139C1.50365 22.8774 1.88589 22.6137 2.29415 22.423C0.896169 20.8591 0.947833 18.4509 2.44788 16.9508C4.00146 15.3973 6.52915 15.3974 8.08259 16.9508L17.0458 25.8877C18.6007 27.4426 18.6007 29.9703 17.0472 31.5238C16.2947 32.2764 15.2942 32.6908 14.2299 32.6908C13.2454 32.6908 12.3154 32.3361 11.5858 31.6873C11.3945 32.1026 11.1279 32.4913 10.7862 32.8331C10.0336 33.5856 9.03306 34.0001 7.96877 34.0001C6.90447 34.0001 5.90393 33.5856 5.15141 32.8331L4.09834 31.7801L2.26726 33.6111C2.00794 33.8705 1.66808 34.0001 1.32814 34.0001ZM3.98439 24.7039C3.64426 24.7039 3.30419 24.8333 3.04527 25.0923C2.52744 25.6101 2.52744 26.4526 3.04527 26.9704L7.02965 30.9548C7.54749 31.4727 8.39005 31.4727 8.90788 30.9548C9.42572 30.437 9.42572 29.5945 8.90788 29.0767L4.92351 25.0923C4.66459 24.8333 4.32452 24.7039 3.98439 24.7039ZM5.26477 18.441C4.9247 18.441 4.5849 18.5704 4.32612 18.8292C3.80828 19.347 3.80828 20.1896 4.32612 20.7074L13.2894 29.6442C13.2898 29.6447 13.2903 29.6452 13.2908 29.6456C13.5416 29.8965 13.8751 30.0346 14.2299 30.0346C14.5846 30.0346 14.9181 29.8965 15.169 29.6457C15.4199 29.3948 15.558 29.0613 15.558 28.7065C15.558 28.3518 15.4198 28.0183 15.169 27.7674L6.20575 18.8305C5.94597 18.5708 5.60524 18.441 5.26477 18.441ZM28.7064 18.2143C27.6421 18.2143 26.6415 17.7999 25.889 17.0473L16.9258 8.11048C15.3709 6.55558 15.3709 4.02782 16.9244 2.47425C18.4281 0.970677 20.8445 0.922599 22.4067 2.32948C22.5986 1.908 22.8677 1.51335 23.2139 1.16704C23.9664 0.414591 24.967 8.30097e-05 26.0313 8.30097e-05C27.0955 8.30097e-05 28.0961 0.414524 28.8486 1.16704L29.9017 2.22011L31.7328 0.389024C32.2515 -0.129675 33.0924 -0.129675 33.611 0.389024C34.1296 0.907724 34.1297 1.74869 33.611 2.26733L31.7799 4.09834L32.833 5.15135C33.5856 5.90406 34 6.90461 34 7.96883C34 9.03306 33.5856 10.0337 32.833 10.7863C32.4913 11.128 32.1023 11.3945 31.687 11.5859C33.0752 13.1499 33.0201 15.5506 31.5237 17.0472C31.5237 17.0474 31.5238 17.0472 31.5237 17.0472C30.7713 17.7998 29.7707 18.2143 28.7064 18.2143ZM19.7413 3.9644C19.4013 3.9644 19.0615 4.09383 18.8027 4.35261C18.2848 4.87045 18.2848 5.71301 18.8027 6.23085L27.7659 15.1677C28.0181 15.4199 28.3517 15.5581 28.7064 15.5581C29.0612 15.5581 29.3947 15.4199 29.6456 15.1691C29.6456 15.1691 29.6456 15.1691 29.6456 15.1691C30.1634 14.6512 30.1634 13.8087 29.6456 13.2909L20.6823 4.35394C20.4225 4.09423 20.0818 3.9644 19.7413 3.9644ZM26.0313 2.657C25.6911 2.657 25.3511 2.78642 25.0921 3.04541C24.5743 3.56324 24.5743 4.40574 25.0921 4.92358L29.0765 8.90795C29.5944 9.42585 30.4369 9.42585 30.9548 8.90795C31.4726 8.39011 31.4726 7.54762 30.9548 7.02978L26.9704 3.04541C26.7115 2.78642 26.3714 2.657 26.0313 2.657Z" fill="white"/>
<path d="M15.1407 20.1875C14.7969 20.1875 14.4533 20.0548 14.1932 19.7902C13.6792 19.2669 13.6866 18.4261 14.2098 17.912L17.995 14.1933C18.5182 13.6791 19.3591 13.6866 19.8732 14.2099C20.3872 14.7331 20.3798 15.574 19.8565 16.088L16.0714 19.8068C15.8129 20.0608 15.4767 20.1875 15.1407 20.1875Z" fill="#1F9DE6"/>
</g>
<defs>
<clipPath id="clip0_472_6699">
<rect width="34" height="34" fill="white"/>
</clipPath>
</defs>
</svg>
