<svg width="42" height="42" viewBox="0 0 42 42" fill="none" xmlns="http://www.w3.org/2000/svg">
<g clip-path="url(#clip0_1_317)" filter="url(#filter0_d_1_317)">
<path d="M9.31237 24.702V11.4211C9.31237 8.48716 11.6908 6.10875 14.6247 6.10875H10.6405C7.70651 6.10875 5.32809 8.48716 5.32809 11.4211V24.702C5.32809 27.636 7.70651 30.0144 10.6405 30.0144H14.6247C11.6908 30.0144 9.31237 27.636 9.31237 24.702Z" fill="#DBE1FB"/>
<path d="M18.5813 19.4173C18.2673 19.1033 18.131 18.6532 18.2181 18.2178L18.9995 14.3108C19.1542 13.537 19.531 12.8329 20.0891 12.2749L31.1976 1.16652C32.751 -0.38701 35.2787 -0.38701 36.8322 1.16652C38.3893 2.72358 38.3895 5.2439 36.8322 6.80115L25.7238 17.9095C25.1657 18.4676 24.4617 18.8443 23.6878 18.9991L19.7809 19.7805C19.3393 19.8688 18.891 19.7269 18.5813 19.4173ZM23.4274 17.6968H23.428H23.4274ZM33.0758 3.04471L21.9673 14.1531C21.7813 14.3391 21.6558 14.5738 21.6042 14.8318L21.2135 16.7852L23.1669 16.3945C23.4249 16.3429 23.6595 16.2173 23.8456 16.0313L34.954 4.9229C35.473 4.40388 35.4731 3.56386 34.954 3.04471C34.4349 2.52563 33.5949 2.52563 33.0758 3.04471Z" fill="black"/>
<path d="M10.6405 33.9987C9.90695 33.9987 9.31237 33.4041 9.31237 32.6706V31.2091C6.28518 30.592 4 27.9088 4 24.702V11.4211C4 7.75956 6.97891 4.78065 10.6405 4.78065H20.0898C20.8233 4.78065 21.4179 5.37524 21.4179 6.10875C21.4179 6.84225 20.8233 7.43684 20.0898 7.43684H10.6405C8.44353 7.43684 6.65618 9.22418 6.65618 11.4211V24.702C6.65618 26.899 8.44353 28.6863 10.6405 28.6863C11.374 28.6863 11.9685 29.2809 11.9685 30.0144V31.1135C12.8351 30.8031 13.5776 30.1892 14.0681 29.3464C14.306 28.9377 14.7431 28.6863 15.216 28.6863H31.3587C33.5556 28.6863 35.343 26.899 35.343 24.702V12.0647C35.343 11.3312 35.9375 10.7366 36.671 10.7366C37.4046 10.7366 37.9991 11.3312 37.9991 12.0647V24.702C37.9991 28.3636 35.0202 31.3425 31.3587 31.3425H15.9253C14.6783 32.9976 12.7171 33.9987 10.6405 33.9987Z" fill="black"/>
<path d="M29.2337 26.0301H10.6405C9.90695 26.0301 9.31236 25.4355 9.31236 24.702C9.31236 23.9685 9.90695 23.3739 10.6405 23.3739H29.2337C29.9672 23.3739 30.5618 23.9685 30.5618 24.702C30.5618 25.4355 29.9672 26.0301 29.2337 26.0301Z" fill="#2944FF"/>
<path d="M13.2966 20.7178H10.6405C9.90695 20.7178 9.31236 20.1232 9.31236 19.3897C9.31236 18.6562 9.90695 18.0616 10.6405 18.0616H13.2966C14.0301 18.0616 14.6247 18.6562 14.6247 19.3897C14.6247 20.1232 14.0301 20.7178 13.2966 20.7178Z" fill="#2944FF"/>
<path d="M13.2966 15.4054H10.6405C9.90695 15.4054 9.31236 14.8108 9.31236 14.0773C9.31236 13.3438 9.90695 12.7492 10.6405 12.7492H13.2966C14.0301 12.7492 14.6247 13.3438 14.6247 14.0773C14.6247 14.8108 14.0301 15.4054 13.2966 15.4054Z" fill="#2944FF"/>
</g>
<defs>
<filter id="filter0_d_1_317" x="0" y="0" width="42" height="42" filterUnits="userSpaceOnUse" color-interpolation-filters="sRGB">
<feFlood flood-opacity="0" result="BackgroundImageFix"/>
<feColorMatrix in="SourceAlpha" type="matrix" values="0 0 0 0 0 0 0 0 0 0 0 0 0 0 0 0 0 0 127 0" result="hardAlpha"/>
<feOffset dy="4"/>
<feGaussianBlur stdDeviation="2"/>
<feComposite in2="hardAlpha" operator="out"/>
<feColorMatrix type="matrix" values="0 0 0 0 0 0 0 0 0 0 0 0 0 0 0 0 0 0 0.25 0"/>
<feBlend mode="normal" in2="BackgroundImageFix" result="effect1_dropShadow_1_317"/>
<feBlend mode="normal" in="SourceGraphic" in2="effect1_dropShadow_1_317" result="shape"/>
</filter>
<clipPath id="clip0_1_317">
<rect width="34" height="34" fill="white" transform="translate(4)"/>
</clipPath>
</defs>
</svg>
