<svg width="34" height="34" viewBox="0 0 34 34" fill="none" xmlns="http://www.w3.org/2000/svg">
<g clip-path="url(#clip0_472_6738)">
<path d="M5.31234 24.7017V11.4208C5.31234 8.48681 7.69075 6.1084 10.6247 6.1084H6.64043C3.70648 6.1084 1.32806 8.48681 1.32806 11.4208V24.7017C1.32806 27.6356 3.70648 30.014 6.64043 30.014H10.6247C7.69075 30.014 5.31234 27.6356 5.31234 24.7017Z" fill="#444444"/>
<path d="M14.5813 19.4169C14.2673 19.1029 14.131 18.6528 14.2181 18.2174L14.9994 14.3104C15.1542 13.5366 15.531 12.8325 16.0891 12.2745L27.1976 1.16613C28.751 -0.387407 31.2787 -0.387407 32.8322 1.16613C34.3892 2.72318 34.3894 5.2435 32.8322 6.80075L21.7238 17.9091C21.1656 18.4672 20.4617 18.844 19.6878 18.9987L15.7809 19.7801C15.3393 19.8684 14.8909 19.7265 14.5813 19.4169ZM19.4274 17.6964H19.428H19.4274ZM29.0758 3.04431L17.9673 14.1527C17.7813 14.3387 17.6558 14.5734 17.6042 14.8314L17.2134 16.7848L19.1669 16.3941C19.4248 16.3425 19.6595 16.2169 19.8456 16.0309L30.9539 4.9225C31.473 4.40348 31.4731 3.56347 30.9539 3.04431C30.4349 2.52523 29.5949 2.52523 29.0758 3.04431Z" fill="white"/>
<path d="M6.64046 33.9983C5.90695 33.9983 5.31237 33.4037 5.31237 32.6702V31.2087C2.28518 30.5917 0 27.9085 0 24.7016V11.4207C0 7.75918 2.97891 4.78027 6.64046 4.78027H16.0898C16.8233 4.78027 17.4179 5.37486 17.4179 6.10836C17.4179 6.84187 16.8233 7.43646 16.0898 7.43646H6.64046C4.44353 7.43646 2.65618 9.2238 2.65618 11.4207V24.7016C2.65618 26.8986 4.44353 28.6859 6.64046 28.6859C7.37396 28.6859 7.96855 29.2805 7.96855 30.014V31.1131C8.83513 30.8027 9.5776 30.1889 10.0681 29.346C10.306 28.9373 10.7431 28.6859 11.216 28.6859H27.3587C29.5556 28.6859 31.343 26.8986 31.343 24.7016V12.0643C31.343 11.3308 31.9375 10.7362 32.671 10.7362C33.4046 10.7362 33.9991 11.3308 33.9991 12.0643V24.7016C33.9991 28.3632 31.0202 31.3421 27.3587 31.3421H11.9253C10.6783 32.9972 8.71713 33.9983 6.64046 33.9983Z" fill="white"/>
<path d="M25.2337 26.0302H6.64047C5.90696 26.0302 5.31238 25.4356 5.31238 24.7021C5.31238 23.9686 5.90696 23.374 6.64047 23.374H25.2337C25.9673 23.374 26.5618 23.9686 26.5618 24.7021C26.5618 25.4356 25.9673 26.0302 25.2337 26.0302Z" fill="#2944FF"/>
<path d="M9.29665 20.7177H6.64047C5.90696 20.7177 5.31238 20.1231 5.31238 19.3896C5.31238 18.6561 5.90696 18.0615 6.64047 18.0615H9.29665C10.0302 18.0615 10.6247 18.6561 10.6247 19.3896C10.6247 20.1231 10.0302 20.7177 9.29665 20.7177Z" fill="#2944FF"/>
<path d="M9.29665 15.4052H6.64047C5.90696 15.4052 5.31238 14.8106 5.31238 14.0771C5.31238 13.3436 5.90696 12.749 6.64047 12.749H9.29665C10.0302 12.749 10.6247 13.3436 10.6247 14.0771C10.6247 14.8106 10.0302 15.4052 9.29665 15.4052Z" fill="#2944FF"/>
</g>
<defs>
<clipPath id="clip0_472_6738">
<rect width="34" height="34" fill="white"/>
</clipPath>
</defs>
</svg>
