<svg width="24" height="24" viewBox="0 0 24 24" fill="none" xmlns="http://www.w3.org/2000/svg">
<path d="M8.04937 18.5431L11.1127 20.9093C11.5141 21.3107 12.4015 21.5009 12.993 21.5009H16.7324C17.9155 21.5009 19.2042 20.6136 19.5 19.4305L21.8662 12.2051C22.3521 10.8319 21.4648 9.62769 19.9859 9.62769H16.0353C15.4437 9.62769 14.9578 9.14191 15.0423 8.44473L15.5282 5.27574C15.7183 4.38842 15.1268 3.3954 14.2395 3.09963C13.4578 2.80385 12.4648 3.20517 12.0634 3.79671L8.00708 9.81776" stroke="black" stroke-width="1.5" stroke-miterlimit="10"/>
<path d="M3 18.5431V8.86721C3 7.47285 3.59155 6.98691 4.98591 6.98691H5.97887C7.3521 6.98691 7.96478 7.47285 7.96478 8.86721V18.5431C7.96478 19.9164 7.37323 20.4234 5.97887 20.4234H4.98591C3.59155 20.4234 3 19.9375 3 18.5431Z" stroke="black" stroke-width="1.5" stroke-linecap="round" stroke-linejoin="round"/>
</svg>
