<svg width="34" height="34" viewBox="0 0 34 34" fill="none" xmlns="http://www.w3.org/2000/svg">
<g clip-path="url(#clip0_472_6681)">
<path d="M31.8868 13.0355L17.7584 2.90479C17.3074 2.58967 16.6986 2.58615 16.2424 2.90479L2.11406 13.0355C0.688234 14.0578 -0.860551 11.9024 0.567402 10.8785L14.7013 0.743946C14.7044 0.74169 14.7075 0.739501 14.7107 0.737245C16.0749 -0.223173 17.9101 -0.234453 19.2903 0.737245C19.2934 0.739434 19.2966 0.74169 19.2997 0.743946L33.4335 10.8785C34.8643 11.9045 33.3004 14.0491 31.8868 13.0355Z" fill="#A74DED"/>
<path d="M9.30325 31.3327V32.6598H6.64906C5.18528 32.6598 3.99487 31.4694 3.99487 30.0056V18.1022C3.99487 17.2416 4.41423 16.4314 5.11693 15.9351L15.4742 8.45825C16.4055 7.80439 17.6273 7.82509 18.5265 8.45825L20.2518 9.90013L8.55211 18.5926C8.54813 18.5959 8.54349 18.5992 8.53951 18.6019C8.1865 18.8501 7.97615 19.2561 7.97615 19.6874V30.0056C7.97615 30.7375 8.57136 31.3327 9.30325 31.3327Z" fill="#444444"/>
<path d="M27.3517 33.987H19.6546C18.9216 33.987 18.3275 33.3929 18.3275 32.6599V27.3515C18.3275 26.6198 17.7321 26.0244 17.0004 26.0244C16.2686 26.0244 15.6733 26.6198 15.6733 27.3515V32.6599C15.6733 33.3929 15.0792 33.987 14.3462 33.987H6.64906C4.45379 33.987 2.66779 32.201 2.66779 30.0057V18.1022C2.66779 16.8112 3.2967 15.5966 4.35047 14.8514L14.6978 7.38204C14.702 7.37892 14.7063 7.37586 14.7107 7.37281C16.0749 6.41266 17.9098 6.40131 19.2901 7.37281C19.2944 7.37586 19.2987 7.37892 19.303 7.38204L29.6504 14.8515C30.7041 15.5967 31.3331 16.8112 31.3331 18.1022V30.0058C31.333 32.201 29.547 33.987 27.3517 33.987ZM20.9817 31.3328H27.3517C28.0835 31.3328 28.6788 30.7375 28.6788 30.0057V18.1022C28.6788 17.6709 28.4683 17.2652 28.1155 17.0169C28.1112 17.0139 28.1069 17.0108 28.1026 17.0077L17.7572 9.53962C17.3059 9.22523 16.6985 9.22278 16.2436 9.53962L5.8982 17.0077C5.89395 17.0108 5.88964 17.0139 5.88526 17.0169C5.53258 17.2652 5.32197 17.6709 5.32197 18.1022V30.0057C5.32197 30.7375 5.91731 31.3328 6.64906 31.3328H13.0191V27.3515C13.0191 25.1563 14.8051 23.3703 17.0004 23.3703C19.1957 23.3703 20.9817 25.1563 20.9817 27.3515V31.3328Z" fill="white"/>
</g>
<defs>
<clipPath id="clip0_472_6681">
<rect width="34" height="34" fill="white"/>
</clipPath>
</defs>
</svg>
