<svg width="50" height="50" viewBox="0 0 50 50" fill="none" xmlns="http://www.w3.org/2000/svg">
<path d="M24.9388 4.16699C13.4388 4.16699 4.10547 13.5003 4.10547 25.0003C4.10547 36.5003 13.4388 45.8337 24.9388 45.8337C36.4388 45.8337 45.7721 36.5003 45.7721 25.0003C45.7721 13.5003 36.4596 4.16699 24.9388 4.16699ZM22.3346 31.3128C22.3346 32.3128 21.918 32.7087 20.8555 32.7087H18.1471C17.0846 32.7087 16.668 32.3128 16.668 31.3128V18.6878C16.668 17.6878 17.0846 17.292 18.1471 17.292H20.8346C21.8971 17.292 22.3138 17.6878 22.3138 18.6878V31.3128H22.3346ZM33.3346 31.3128C33.3346 32.3128 32.918 32.7087 31.8555 32.7087H29.168C28.1055 32.7087 27.6888 32.3128 27.6888 31.3128V18.6878C27.6888 17.6878 28.1055 17.292 29.168 17.292H31.8555C32.918 17.292 33.3346 17.6878 33.3346 18.6878V31.3128Z" fill="#232323"/>
</svg>
