<svg width="50" height="50" viewBox="0 0 50 50" fill="none" xmlns="http://www.w3.org/2000/svg">
<rect x="16.6667" y="12.5" width="18.75" height="25" fill="white"/>
<path d="M25.0001 4.16699C13.5001 4.16699 4.16675 13.5003 4.16675 25.0003C4.16675 36.5003 13.5001 45.8337 25.0001 45.8337C36.5001 45.8337 45.8334 36.5003 45.8334 25.0003C45.8334 13.5003 36.5001 4.16699 25.0001 4.16699ZM30.5417 28.6045L27.8751 30.1462L25.2084 31.6878C21.7709 33.667 18.9584 32.042 18.9584 28.0837V25.0003V21.917C18.9584 17.9378 21.7709 16.3337 25.2084 18.3128L27.8751 19.8545L30.5417 21.3962C33.9792 23.3753 33.9792 26.6253 30.5417 28.6045Z" fill="#232323"/>
</svg>
