<svg width="30" height="34" viewBox="0 0 30 34" fill="none" xmlns="http://www.w3.org/2000/svg">
<path d="M8.35944 22.0469C8.35944 21.0258 8.93558 20.1393 9.78053 19.6947C10.5846 19.2716 11.0157 18.3677 11.0157 17.4591V11.9531C11.0157 8.24002 13.5553 5.12005 16.9922 4.23546C16.3555 4.07157 15.688 3.98438 15.0001 3.98438C10.5991 3.98438 7.03131 7.55212 7.03131 11.9531V17.4591C7.03131 18.3676 6.60027 19.2716 5.79615 19.6947C4.9512 20.1393 4.37506 21.0258 4.37506 22.0469C4.37506 23.5139 5.56426 24.7032 7.03131 24.7032H11.0157C9.54857 24.7032 8.35944 23.5139 8.35944 22.0469Z" fill="#DBE1FB"/>
<path d="M17.6563 28.6875C16.9228 28.6875 16.3282 29.2821 16.3282 30.0156C16.3282 30.748 15.7324 31.3438 15 31.3438C14.2677 31.3438 13.6719 30.748 13.6719 30.0156C13.6719 29.2821 13.0773 28.6875 12.3438 28.6875C11.6103 28.6875 11.0157 29.2821 11.0157 30.0156C11.0157 32.2126 12.8031 34 15 34C17.197 34 18.9844 32.2126 18.9844 30.0156C18.9844 29.2821 18.3898 28.6875 17.6563 28.6875Z" fill="#0EAA39"/>
<path d="M1.72041 10.5983C2.43434 10.7439 3.13964 10.2854 3.287 9.56216C3.86965 6.70364 5.48578 4.15656 7.83762 2.39009C8.42412 1.94955 8.54246 1.11701 8.10192 0.530515C7.66138 -0.0559189 6.82884 -0.174321 6.24241 0.266218C3.37074 2.42316 1.39681 5.53615 0.684274 9.03164C0.537782 9.75042 1.0017 10.4518 1.72041 10.5983Z" fill="black"/>
<path d="M21.8981 0.530579C21.4576 1.11708 21.5759 1.94961 22.1624 2.39015C24.5142 4.15663 26.1304 6.7037 26.713 9.56223C26.8596 10.2819 27.5616 10.7445 28.2796 10.5984C28.9983 10.4519 29.4622 9.75042 29.3157 9.03171C28.6032 5.53615 26.6294 2.42316 23.7575 0.266215C23.1712 -0.174257 22.3384 -0.0559214 21.8981 0.530579Z" fill="black"/>
<path d="M13.6719 2.7516C9.17258 3.39807 5.70319 7.27779 5.70319 11.9532V17.4591C5.70319 17.928 5.49201 18.354 5.17778 18.5194C3.8634 19.2109 3.04694 20.5626 3.04694 22.047C3.04694 24.244 4.83433 26.0314 7.03131 26.0314H22.9688C25.1658 26.0314 26.9532 24.244 26.9532 22.047C26.9532 20.5626 26.1367 19.2109 24.8223 18.5194C24.5081 18.3541 24.2969 17.928 24.2969 17.4592V11.9533C24.2969 7.27785 20.8275 3.39807 16.3282 2.75167V1.32819C16.3282 0.594663 15.7336 6.10352e-05 15.0001 6.10352e-05C14.2665 6.10352e-05 13.6719 0.594663 13.6719 1.32819V2.7516ZM21.6407 11.9532V17.4591C21.6407 18.9319 22.3859 20.2389 23.5855 20.8701C24.0243 21.101 24.2969 21.5519 24.2969 22.0469C24.2969 22.7793 23.7011 23.3751 22.9688 23.3751H7.03131C6.29898 23.3751 5.70319 22.7793 5.70319 22.0469C5.70319 21.5519 5.97572 21.1009 6.4146 20.87C7.61422 20.2388 8.35944 18.9318 8.35944 17.4591V11.9531C8.35944 8.29148 11.3384 5.31249 15.0001 5.31249C18.6618 5.31249 21.6407 8.29155 21.6407 11.9532Z" fill="black"/>
</svg>
