<svg width="34" height="34" viewBox="0 0 34 34" fill="none" xmlns="http://www.w3.org/2000/svg">
<g clip-path="url(#clip0_472_6708)">
<path d="M10.3594 22.0469C10.3594 21.0258 10.9356 20.1393 11.7805 19.6947C12.5846 19.2716 13.0157 18.3677 13.0157 17.4591V11.9531C13.0157 8.24002 15.5553 5.12005 18.9922 4.23546C18.3555 4.07157 17.688 3.98438 17.0001 3.98438C12.5991 3.98438 9.03131 7.55212 9.03131 11.9531V17.4591C9.03131 18.3676 8.60027 19.2716 7.79615 19.6947C6.9512 20.1393 6.37506 21.0258 6.37506 22.0469C6.37506 23.5139 7.56426 24.7032 9.03131 24.7032H13.0157C11.5486 24.7032 10.3594 23.5139 10.3594 22.0469Z" fill="#444444"/>
<path d="M19.6562 28.6875C18.9227 28.6875 18.3281 29.2821 18.3281 30.0156C18.3281 30.748 17.7323 31.3438 17 31.3438C16.2677 31.3438 15.6719 30.748 15.6719 30.0156C15.6719 29.2821 15.0773 28.6875 14.3438 28.6875C13.6102 28.6875 13.0156 29.2821 13.0156 30.0156C13.0156 32.2126 14.803 34 17 34C19.197 34 20.9844 32.2126 20.9844 30.0156C20.9844 29.2821 20.3897 28.6875 19.6562 28.6875Z" fill="#459B5D"/>
<path d="M3.72038 10.5983C4.43431 10.744 5.13961 10.2854 5.28697 9.56221C5.86962 6.70368 7.48575 4.15661 9.83759 2.39013C10.4241 1.9496 10.5424 1.11706 10.1019 0.53056C9.66135 -0.0558732 8.82881 -0.174275 8.24238 0.266264C5.37071 2.4232 3.39678 5.5362 2.68424 9.03169C2.53775 9.75047 3.00167 10.4519 3.72038 10.5983Z" fill="white"/>
<path d="M23.8981 0.530594C23.4575 1.11709 23.5759 1.94963 24.1624 2.39017C26.5142 4.15664 28.1303 6.70372 28.713 9.56224C28.8596 10.282 29.5616 10.7445 30.2796 10.5984C30.9983 10.4519 31.4622 9.75044 31.3157 9.03172C30.6032 5.53616 28.6293 2.42317 25.7575 0.266231C25.1711 -0.174242 24.3384 -0.0559061 23.8981 0.530594Z" fill="white"/>
<path d="M15.6719 2.75154C11.1726 3.39801 7.70319 7.27773 7.70319 11.9531V17.4591C7.70319 17.9279 7.49201 18.354 7.17778 18.5193C5.8634 19.2109 5.04694 20.5626 5.04694 22.0469C5.04694 24.2439 6.83433 26.0313 9.03131 26.0313H24.9688C27.1658 26.0313 28.9532 24.2439 28.9532 22.0469C28.9532 20.5626 28.1367 19.2109 26.8223 18.5194C26.5081 18.354 26.2969 17.9279 26.2969 17.4591V11.9532C26.2969 7.27779 22.8275 3.39801 18.3282 2.75161V1.32812C18.3282 0.594602 17.7336 0 17.0001 0C16.2665 0 15.6719 0.594602 15.6719 1.32812V2.75154ZM23.6407 11.9531V17.4591C23.6407 18.9318 24.3859 20.2388 25.5855 20.87C26.0243 21.1009 26.2969 21.5519 26.2969 22.0469C26.2969 22.7792 25.7011 23.375 24.9688 23.375H9.03131C8.29898 23.375 7.70319 22.7792 7.70319 22.0469C7.70319 21.5518 7.97572 21.1009 8.4146 20.87C9.61422 20.2388 10.3594 18.9318 10.3594 17.459V11.9531C10.3594 8.29142 13.3384 5.31243 17.0001 5.31243C20.6618 5.31243 23.6407 8.29148 23.6407 11.9531Z" fill="white"/>
</g>
<defs>
<clipPath id="clip0_472_6708">
<rect width="34" height="34" fill="white"/>
</clipPath>
</defs>
</svg>
