<svg width="24" height="24" viewBox="0 0 24 24" fill="none" xmlns="http://www.w3.org/2000/svg">
<path d="M21.71 11.2901L12.71 2.29014C12.5694 2.15138 12.3908 2.05739 12.1968 2.02001C12.0028 1.98264 11.8021 2.00356 11.62 2.08014C11.4374 2.15516 11.2811 2.28256 11.1707 2.44628C11.0604 2.61 11.001 2.80271 11 3.00014V9.59014L3.71 2.29014C3.56938 2.15138 3.3908 2.05739 3.19681 2.02001C3.00282 1.98264 2.80211 2.00356 2.62 2.08014C2.43738 2.15516 2.28105 2.28256 2.17072 2.44628C2.06039 2.61 2.00099 2.80271 2 3.00014V21.0001C2.00099 21.1976 2.06039 21.3903 2.17072 21.554C2.28105 21.7177 2.43738 21.8451 2.62 21.9201C2.73868 21.9761 2.86882 22.0035 3 22.0001C3.13161 22.0009 3.26207 21.9757 3.38391 21.9259C3.50574 21.8761 3.61656 21.8028 3.71 21.7101L11 14.4101V21.0001C11.001 21.1976 11.0604 21.3903 11.1707 21.554C11.2811 21.7177 11.4374 21.8451 11.62 21.9201C11.7387 21.9761 11.8688 22.0035 12 22.0001C12.1316 22.0009 12.2621 21.9757 12.3839 21.9259C12.5057 21.8761 12.6166 21.8028 12.71 21.7101L21.71 12.7101C21.8037 12.6172 21.8781 12.5066 21.9289 12.3847C21.9797 12.2629 22.0058 12.1322 22.0058 12.0001C22.0058 11.8681 21.9797 11.7374 21.9289 11.6156C21.8781 11.4937 21.8037 11.3831 21.71 11.2901ZM4 18.5901V5.41014L10.59 12.0001L4 18.5901ZM13 18.5901V5.41014L19.59 12.0001L13 18.5901Z" fill="black"/>
</svg>
