<svg width="32" height="34" viewBox="0 0 32 34" fill="none" xmlns="http://www.w3.org/2000/svg">
<path d="M18.6563 30.0156V29.9557C18.6563 29.8744 18.6616 29.7942 18.6695 29.7146C18.2594 29.3442 17.7723 29.0575 17.2345 28.8825C17.0782 27.9746 16.7283 27.1101 16.2004 26.3387C15.4661 25.266 14.4379 24.4476 13.2266 23.9719C12.5164 23.6931 11.8534 23.3068 11.2559 22.8239C10.3357 22.08 9.24424 21.6064 8.08133 21.4432C8.54139 20.3682 8.69851 19.198 8.53582 18.0357C8.48741 17.6899 8.4629 17.3359 8.4629 16.9834C8.4629 16.6162 8.4896 16.2472 8.54226 15.887C8.71239 14.7251 8.56278 13.5543 8.10962 12.4758C9.24723 12.3229 10.35 11.8641 11.2975 11.1094C11.8832 10.6427 12.5313 10.2681 13.2236 9.99587C14.4335 9.52033 15.4611 8.70347 16.1956 7.63373C16.7193 6.87092 17.0685 6.0168 17.2282 5.11959C17.7699 4.94421 18.2605 4.65574 18.6729 4.28241C18.663 4.19289 18.6563 4.10264 18.6563 4.01107V3.98438C18.6563 2.51739 17.467 1.32812 16 1.32812C14.533 1.32812 13.3438 2.51739 13.3438 3.98438C13.3438 5.00431 12.7152 5.91467 11.766 6.28781C10.6942 6.70916 9.70118 7.28696 8.81479 7.99305C8.01884 8.62717 6.92228 8.72585 6.03741 8.22329L5.96125 8.18005C4.6816 7.45908 3.0575 7.90786 2.33374 9.18259C1.60991 10.4573 2.06048 12.0751 3.34012 12.7962L3.36151 12.8083C4.24657 13.311 4.74734 14.303 4.59992 15.3101C4.51996 15.8564 4.47853 16.415 4.47853 16.9835C4.47853 17.528 4.51651 18.0636 4.58989 18.5879C4.72934 19.5841 4.23541 20.5627 3.36064 21.0595L3.34012 21.0711C2.06048 21.7921 1.60991 23.41 2.33374 24.6847C3.05757 25.9594 4.6816 26.4083 5.96125 25.6873L5.96503 25.6851C6.85355 25.1805 7.95655 25.2803 8.75117 25.9226C9.65469 26.653 10.6711 27.2491 11.7703 27.6808C12.718 28.0529 13.3438 28.9642 13.3438 29.9824V30.0156C13.3438 31.4826 14.533 32.6719 16 32.6719C17.467 32.6719 18.6563 31.4826 18.6563 30.0156V30.0156Z" fill="#DBE1FB"/>
<path d="M16 34C13.803 34 12.0156 32.2126 12.0156 30.0156V29.9824C12.0156 29.5095 11.7288 29.0912 11.2849 28.9169C10.0691 28.4396 8.93584 27.7797 7.91623 26.9554C7.54064 26.6518 7.03217 26.6063 6.62091 26.8399C6.61959 26.8406 6.61447 26.8435 6.61314 26.8443C4.69978 27.9225 2.26181 27.2478 1.17879 25.3404C0.653648 24.4157 0.520902 23.3421 0.805054 22.3177C1.0898 21.2914 1.75851 20.4377 2.68807 19.9139L2.7046 19.9045C3.10822 19.6753 3.33719 19.2202 3.2745 18.7719C3.19209 18.1829 3.15032 17.5812 3.15032 16.9833C3.15032 16.3596 3.19588 15.7319 3.28573 15.1178C3.3524 14.662 3.11925 14.1981 2.70553 13.9631L2.68382 13.9508C1.75851 13.4294 1.0898 12.5757 0.805054 11.5494C0.520902 10.525 0.653648 9.45153 1.17879 8.52669C2.26187 6.61924 4.69985 5.94482 6.61314 7.02286L6.69303 7.06822C7.1013 7.30011 7.60917 7.25535 7.98709 6.95426C8.98703 6.15765 10.0949 5.51756 11.28 5.05172C11.7269 4.87608 12.0156 4.45712 12.0156 3.98438C12.0156 1.78739 13.803 0 16 0C18.197 0 19.9844 1.78739 19.9844 3.98438V4.01107C19.9844 4.48123 20.2709 4.89932 20.7143 5.07629C21.8864 5.54399 22.9821 6.18249 23.9707 6.97398C24.3495 7.2772 24.8581 7.32322 25.2665 7.09132L25.3829 7.02518C27.3003 5.94489 29.7381 6.61944 30.8212 8.52683C31.3464 9.4516 31.4791 10.5251 31.1949 11.5494C30.9102 12.5758 30.2415 13.4295 29.3119 13.9532L29.2208 14.0049C28.8152 14.2353 28.586 14.6904 28.6508 15.1374C28.7387 15.7452 28.7833 16.3662 28.7833 16.9834C28.7833 17.5695 28.7432 18.1594 28.6641 18.7369C28.6026 19.186 28.8315 19.6411 29.2337 19.8695L29.3139 19.9151C30.2424 20.439 30.9104 21.2922 31.1949 22.3177C31.4791 23.3421 31.3464 24.4157 30.8212 25.3405C29.7382 27.2478 27.3003 27.9225 25.3869 26.8443L25.3406 26.8181C24.9281 26.5838 24.4168 26.6314 24.0376 26.9392C23.0302 27.7567 21.9105 28.4139 20.7097 28.8925C20.2691 29.068 19.9844 29.4854 19.9844 29.9557V30.0156C19.9844 32.2126 18.197 34 16 34V34ZM7.18317 24.0324C8.03596 24.0324 8.88384 24.322 9.58609 24.8897C10.3946 25.5432 11.2927 26.0663 12.2557 26.4445C13.7235 27.0208 14.6719 28.4095 14.6719 29.9824V30.0156C14.6719 30.748 15.2677 31.3438 16 31.3438C16.7323 31.3438 17.3281 30.748 17.3281 30.0156V29.9557C17.3281 28.3914 18.2694 27.0055 19.7262 26.4249C20.6775 26.0458 21.5648 25.5248 22.3637 24.8766C23.5983 23.8745 25.2815 23.7298 26.6518 24.508L26.6942 24.5321C27.3326 24.8917 28.1492 24.6669 28.5113 24.0288C28.6853 23.7224 28.7293 23.3669 28.6352 23.0278C28.5407 22.6868 28.3179 22.4028 28.0079 22.2282C28.0065 22.2274 28.0053 22.2267 28.0039 22.2259L27.9218 22.1793C26.5632 21.4077 25.8215 19.915 26.0324 18.3764C26.0951 17.9181 26.127 17.4494 26.127 16.9834C26.127 16.4931 26.0916 16 26.0218 15.5178C25.8018 13.9975 26.5601 12.4613 27.909 11.6953L28.004 11.6413C28.318 11.4644 28.5408 11.1805 28.6354 10.8394C28.7294 10.5004 28.6854 10.1449 28.5114 9.83848C28.1492 9.20045 27.3324 8.9758 26.6907 9.33718L26.5782 9.40113C25.2184 10.1733 23.5435 10.0345 22.3107 9.04765C21.5268 8.42005 20.6585 7.91396 19.73 7.54342C18.2709 6.96123 17.3281 5.57467 17.3281 4.01107V3.98438C17.3281 3.25205 16.7323 2.65625 16 2.65625C15.2677 2.65625 14.6719 3.25205 14.6719 3.98438C14.6719 5.55661 13.7219 6.94596 12.2519 7.52383C11.3131 7.89285 10.4352 8.40026 9.64233 9.03185C8.41103 10.0129 6.73859 10.1488 5.38157 9.37816L5.3056 9.33506C4.66757 8.9756 3.85098 9.20039 3.48866 9.83835C3.31468 10.1448 3.27065 10.5003 3.36468 10.8394C3.45931 11.1804 3.6821 11.4644 3.99209 11.639L4.01779 11.6536C5.37586 12.4249 6.13814 13.9717 5.91409 15.5023C5.84283 15.9895 5.80671 16.4878 5.80671 16.9833C5.80671 17.4585 5.83984 17.9364 5.90525 18.4038C6.12081 19.9445 5.37951 21.4402 4.01659 22.2142L3.99614 22.2258C3.68217 22.4027 3.45938 22.6867 3.36475 23.0278C3.27065 23.3668 3.31468 23.7223 3.48866 24.0287C3.85084 24.6666 4.66751 24.8915 5.30932 24.53C5.89655 24.1966 6.54123 24.0324 7.18317 24.0324V24.0324Z" fill="black"/>
<path d="M16 23.9727C12.1553 23.9727 9.02734 20.8447 9.02734 17C9.02734 13.1553 12.1553 10.0273 16 10.0273C19.8447 10.0273 22.9727 13.1553 22.9727 17C22.9727 20.8447 19.8447 23.9727 16 23.9727ZM16 12.6836C13.6199 12.6836 11.6836 14.6199 11.6836 17C11.6836 19.3801 13.6199 21.3164 16 21.3164C18.3801 21.3164 20.3164 19.3801 20.3164 17C20.3164 14.6199 18.3801 12.6836 16 12.6836Z" fill="#EE6358"/>
</svg>
