<svg width="34" height="34" viewBox="0 0 34 34" fill="none" xmlns="http://www.w3.org/2000/svg">
<g clip-path="url(#clip0_472_6690)">
<path d="M19.6563 30.0156V29.9557C19.6563 29.8744 19.6616 29.7942 19.6695 29.7146C19.2594 29.3442 18.7723 29.0575 18.2345 28.8825C18.0782 27.9746 17.7283 27.1101 17.2004 26.3387C16.4661 25.266 15.4379 24.4476 14.2266 23.9719C13.5164 23.6931 12.8534 23.3068 12.2559 22.8239C11.3357 22.08 10.2442 21.6064 9.08133 21.4432C9.54139 20.3682 9.69851 19.198 9.53582 18.0357C9.48741 17.6899 9.4629 17.3359 9.4629 16.9834C9.4629 16.6162 9.4896 16.2472 9.54226 15.887C9.71239 14.7251 9.56278 13.5543 9.10962 12.4758C10.2472 12.3229 11.35 11.8641 12.2975 11.1094C12.8832 10.6427 13.5313 10.2681 14.2236 9.99587C15.4335 9.52033 16.4611 8.70347 17.1956 7.63373C17.7193 6.87092 18.0685 6.0168 18.2282 5.11959C18.7699 4.94421 19.2605 4.65574 19.6729 4.28241C19.663 4.19289 19.6563 4.10264 19.6563 4.01107V3.98438C19.6563 2.51739 18.467 1.32812 17 1.32812C15.533 1.32812 14.3438 2.51739 14.3438 3.98438C14.3438 5.00431 13.7152 5.91467 12.766 6.28781C11.6942 6.70916 10.7012 7.28696 9.81479 7.99305C9.01884 8.62717 7.92228 8.72585 7.03741 8.22329L6.96125 8.18005C5.6816 7.45908 4.0575 7.90786 3.33374 9.18259C2.60991 10.4573 3.06048 12.0751 4.34012 12.7962L4.36151 12.8083C5.24657 13.311 5.74734 14.303 5.59992 15.3101C5.51996 15.8564 5.47853 16.415 5.47853 16.9835C5.47853 17.528 5.51651 18.0636 5.58989 18.5879C5.72934 19.5841 5.23541 20.5627 4.36064 21.0595L4.34012 21.0711C3.06048 21.7921 2.60991 23.41 3.33374 24.6847C4.05757 25.9594 5.6816 26.4083 6.96125 25.6873L6.96503 25.6851C7.85355 25.1805 8.95655 25.2803 9.75117 25.9226C10.6547 26.653 11.6711 27.2491 12.7703 27.6808C13.718 28.0529 14.3438 28.9642 14.3438 29.9824V30.0156C14.3438 31.4826 15.533 32.6719 17 32.6719C18.467 32.6719 19.6563 31.4826 19.6563 30.0156V30.0156Z" fill="#444444"/>
<path d="M17 34C14.803 34 13.0156 32.2126 13.0156 30.0156V29.9824C13.0156 29.5095 12.7288 29.0912 12.2849 28.9169C11.0691 28.4396 9.93584 27.7797 8.91623 26.9554C8.54064 26.6518 8.03217 26.6063 7.62091 26.8399C7.61959 26.8406 7.61447 26.8435 7.61314 26.8443C5.69978 27.9225 3.26181 27.2478 2.17879 25.3404C1.65365 24.4157 1.5209 23.3421 1.80505 22.3177C2.0898 21.2914 2.75851 20.4377 3.68807 19.9139L3.7046 19.9045C4.10822 19.6753 4.33719 19.2202 4.2745 18.7719C4.19209 18.1829 4.15032 17.5812 4.15032 16.9833C4.15032 16.3596 4.19588 15.7319 4.28573 15.1178C4.3524 14.662 4.11925 14.1981 3.70553 13.9631L3.68382 13.9508C2.75851 13.4294 2.0898 12.5757 1.80505 11.5494C1.5209 10.525 1.65365 9.45153 2.17879 8.52669C3.26187 6.61924 5.69985 5.94482 7.61314 7.02286L7.69303 7.06822C8.1013 7.30011 8.60917 7.25535 8.98709 6.95426C9.98703 6.15765 11.0949 5.51756 12.28 5.05172C12.7269 4.87608 13.0156 4.45712 13.0156 3.98438C13.0156 1.78739 14.803 0 17 0C19.197 0 20.9844 1.78739 20.9844 3.98438V4.01107C20.9844 4.48123 21.2709 4.89932 21.7143 5.07629C22.8864 5.54399 23.9821 6.18249 24.9707 6.97398C25.3495 7.2772 25.8581 7.32322 26.2665 7.09132L26.3829 7.02518C28.3003 5.94489 30.7381 6.61944 31.8212 8.52683C32.3464 9.4516 32.4791 10.5251 32.1949 11.5494C31.9102 12.5758 31.2415 13.4295 30.3119 13.9532L30.2208 14.0049C29.8152 14.2353 29.586 14.6904 29.6508 15.1374C29.7387 15.7452 29.7833 16.3662 29.7833 16.9834C29.7833 17.5695 29.7432 18.1594 29.6641 18.7369C29.6026 19.186 29.8315 19.6411 30.2337 19.8695L30.3139 19.9151C31.2424 20.439 31.9104 21.2922 32.1949 22.3177C32.4791 23.3421 32.3464 24.4157 31.8212 25.3405C30.7382 27.2478 28.3003 27.9225 26.3869 26.8443L26.3406 26.8181C25.9281 26.5838 25.4168 26.6314 25.0376 26.9392C24.0302 27.7567 22.9105 28.4139 21.7097 28.8925C21.2691 29.068 20.9844 29.4854 20.9844 29.9557V30.0156C20.9844 32.2126 19.197 34 17 34V34ZM8.18317 24.0324C9.03596 24.0324 9.88384 24.322 10.5861 24.8897C11.3946 25.5432 12.2927 26.0663 13.2557 26.4445C14.7235 27.0208 15.6719 28.4095 15.6719 29.9824V30.0156C15.6719 30.748 16.2677 31.3438 17 31.3438C17.7323 31.3438 18.3281 30.748 18.3281 30.0156V29.9557C18.3281 28.3914 19.2694 27.0055 20.7262 26.4249C21.6775 26.0458 22.5648 25.5248 23.3637 24.8766C24.5983 23.8745 26.2815 23.7298 27.6518 24.508L27.6942 24.5321C28.3326 24.8917 29.1492 24.6669 29.5113 24.0288C29.6853 23.7224 29.7293 23.3669 29.6352 23.0278C29.5407 22.6868 29.3179 22.4028 29.0079 22.2282C29.0065 22.2274 29.0053 22.2267 29.0039 22.2259L28.9218 22.1793C27.5632 21.4077 26.8215 19.915 27.0324 18.3764C27.0951 17.9181 27.127 17.4494 27.127 16.9834C27.127 16.4931 27.0916 16 27.0218 15.5178C26.8018 13.9975 27.5601 12.4613 28.909 11.6953L29.004 11.6413C29.318 11.4644 29.5408 11.1805 29.6354 10.8394C29.7294 10.5004 29.6854 10.1449 29.5114 9.83848C29.1492 9.20045 28.3324 8.9758 27.6907 9.33718L27.5782 9.40113C26.2184 10.1733 24.5435 10.0345 23.3107 9.04765C22.5268 8.42005 21.6585 7.91396 20.73 7.54342C19.2709 6.96123 18.3281 5.57467 18.3281 4.01107V3.98438C18.3281 3.25205 17.7323 2.65625 17 2.65625C16.2677 2.65625 15.6719 3.25205 15.6719 3.98438C15.6719 5.55661 14.7219 6.94596 13.2519 7.52383C12.3131 7.89285 11.4352 8.40026 10.6423 9.03185C9.41103 10.0129 7.73859 10.1488 6.38157 9.37816L6.3056 9.33506C5.66757 8.9756 4.85098 9.20039 4.48866 9.83835C4.31468 10.1448 4.27065 10.5003 4.36468 10.8394C4.45931 11.1804 4.6821 11.4644 4.99209 11.639L5.01779 11.6536C6.37586 12.4249 7.13814 13.9717 6.91409 15.5023C6.84283 15.9895 6.80671 16.4878 6.80671 16.9833C6.80671 17.4585 6.83984 17.9364 6.90525 18.4038C7.12081 19.9445 6.37951 21.4402 5.01659 22.2142L4.99614 22.2258C4.68217 22.4027 4.45938 22.6867 4.36475 23.0278C4.27065 23.3668 4.31468 23.7223 4.48866 24.0287C4.85084 24.6666 5.66751 24.8915 6.30932 24.53C6.89655 24.1966 7.54123 24.0324 8.18317 24.0324V24.0324Z" fill="white"/>
<path d="M17 23.9727C13.1553 23.9727 10.0273 20.8447 10.0273 17C10.0273 13.1553 13.1553 10.0273 17 10.0273C20.8447 10.0273 23.9727 13.1553 23.9727 17C23.9727 20.8447 20.8447 23.9727 17 23.9727ZM17 12.6836C14.6199 12.6836 12.6836 14.6199 12.6836 17C12.6836 19.3801 14.6199 21.3164 17 21.3164C19.3801 21.3164 21.3164 19.3801 21.3164 17C21.3164 14.6199 19.3801 12.6836 17 12.6836Z" fill="#EE6358"/>
</g>
<defs>
<clipPath id="clip0_472_6690">
<rect width="34" height="34" fill="white"/>
</clipPath>
</defs>
</svg>
