<svg width="24" height="24" viewBox="0 0 24 24" fill="none" xmlns="http://www.w3.org/2000/svg">
<path d="M15.2514 17.9967L15.7224 18.2885L16.0954 17.8787C16.6939 17.2213 17.5535 16.8101 18.5074 16.8101C20.3053 16.8101 21.769 18.2739 21.769 20.0718C21.769 21.8695 20.3053 23.3333 18.5074 23.3333C16.7094 23.3333 15.2457 21.8695 15.2457 20.0718C15.2457 19.655 15.3252 19.2569 15.4685 18.8896L15.6702 18.3727L15.1985 18.0805L8.73121 14.0749L8.2601 13.7831L7.88712 14.1929C7.28866 14.8505 6.42903 15.2616 5.47521 15.2616C3.67727 15.2616 2.21354 13.7979 2.21354 12C2.21354 10.2022 3.67729 8.7383 5.47521 8.7383C6.42897 8.7383 7.28864 9.14957 7.88718 9.80709L8.26016 10.2168L8.73121 9.92508L15.1985 5.91947L15.6702 5.62729L15.4685 5.11036C15.3252 4.74303 15.2457 4.34497 15.2457 3.92834C15.2457 2.13039 16.7094 0.666665 18.5074 0.666665C20.3053 0.666665 21.769 2.13025 21.769 3.92815C21.769 5.7261 20.3053 7.18983 18.5074 7.18983C17.5536 7.18983 16.6939 6.77856 16.0954 6.12104L15.7224 5.7113L15.2514 6.00305L8.7839 10.0088L8.31192 10.3012L8.514 10.8183C8.65733 11.185 8.7367 11.583 8.7367 12C8.7367 12.4168 8.65734 12.8147 8.51397 13.1818L8.31198 13.6988L8.78391 13.9911L15.2514 17.9967ZM18.5074 0.765766C16.7629 0.765766 15.3448 2.18393 15.3448 3.92834C15.3448 5.67274 16.7629 7.09091 18.5074 7.09091C20.2518 7.09091 21.6699 5.67274 21.6699 3.92834C21.6699 2.18393 20.2518 0.765766 18.5074 0.765766ZM2.31246 12C2.31246 13.7444 3.73065 15.1625 5.47521 15.1625C7.21968 15.1625 8.6376 13.7443 8.6376 12C8.6376 10.2556 7.21968 8.8374 5.47521 8.8374C3.73065 8.8374 2.31246 10.2555 2.31246 12ZM18.5074 16.909C16.7629 16.909 15.3448 18.3272 15.3448 20.0716C15.3448 21.816 16.7629 23.2342 18.5074 23.2342C20.2518 23.2342 21.6699 21.816 21.6699 20.0716C21.6699 18.3272 20.2518 16.909 18.5074 16.909Z" fill="black" stroke="black" stroke-width="1.33333"/>
</svg>
