<svg width="152" height="135" viewBox="0 0 152 135" fill="none" xmlns="http://www.w3.org/2000/svg">
<path d="M1.83857 129V112.9H7.05957C8.94557 112.9 10.4942 113.23 11.7056 113.889C12.9322 114.548 13.8369 115.484 14.4196 116.695C15.0176 117.891 15.3166 119.317 15.3166 120.973C15.3166 122.614 15.0176 124.04 14.4196 125.251C13.8369 126.447 12.9322 127.375 11.7056 128.034C10.4942 128.678 8.94557 129 7.05957 129H1.83857ZM4.27657 126.93H6.96757C8.42423 126.93 9.57423 126.692 10.4176 126.217C11.2762 125.742 11.8896 125.059 12.2576 124.17C12.6409 123.281 12.8326 122.215 12.8326 120.973C12.8326 119.731 12.6409 118.658 12.2576 117.753C11.8896 116.848 11.2762 116.158 10.4176 115.683C9.57423 115.192 8.42423 114.947 6.96757 114.947H4.27657V126.93ZM21.7824 129.276C20.8164 129.276 20.0191 129.115 19.3904 128.793C18.7618 128.471 18.2941 128.049 17.9874 127.528C17.6808 126.991 17.5274 126.409 17.5274 125.78C17.5274 124.676 17.9568 123.802 18.8154 123.158C19.6741 122.514 20.9008 122.192 22.4954 122.192H25.4854V121.985C25.4854 121.096 25.2401 120.429 24.7494 119.984C24.2741 119.539 23.6531 119.317 22.8864 119.317C22.2118 119.317 21.6214 119.486 21.1154 119.823C20.6248 120.145 20.3258 120.628 20.2184 121.272H17.7804C17.8571 120.444 18.1331 119.739 18.6084 119.156C19.0991 118.558 19.7124 118.106 20.4484 117.799C21.1998 117.477 22.0201 117.316 22.9094 117.316C24.5041 117.316 25.7384 117.738 26.6124 118.581C27.4864 119.409 27.9234 120.544 27.9234 121.985V129H25.8074L25.6004 127.045C25.2784 127.674 24.8108 128.203 24.1974 128.632C23.5841 129.061 22.7791 129.276 21.7824 129.276ZM22.2654 127.298C22.9248 127.298 23.4768 127.145 23.9214 126.838C24.3814 126.516 24.7341 126.094 24.9794 125.573C25.2401 125.052 25.4011 124.477 25.4624 123.848H22.7484C21.7824 123.848 21.0924 124.017 20.6784 124.354C20.2798 124.691 20.0804 125.113 20.0804 125.619C20.0804 126.14 20.2721 126.554 20.6554 126.861C21.0541 127.152 21.5908 127.298 22.2654 127.298ZM32.1461 115.43C31.6861 115.43 31.3028 115.292 30.9961 115.016C30.7048 114.725 30.5591 114.364 30.5591 113.935C30.5591 113.506 30.7048 113.153 30.9961 112.877C31.3028 112.586 31.6861 112.44 32.1461 112.44C32.6061 112.44 32.9818 112.586 33.2731 112.877C33.5798 113.153 33.7331 113.506 33.7331 113.935C33.7331 114.364 33.5798 114.725 33.2731 115.016C32.9818 115.292 32.6061 115.43 32.1461 115.43ZM30.9271 129V117.592H33.3651V129H30.9271ZM36.5835 129V112.44H39.0215V129H36.5835ZM43.4429 134.06L46.1799 128.057H45.5129L41.0049 117.592H43.6499L47.1459 126.033L50.8029 117.592H53.3789L46.0189 134.06H43.4429ZM64.5592 129.023L60.2122 112.9H62.8342L66.0312 126.24L69.7112 112.9H72.4022L75.9672 126.24L79.1642 112.9H81.7862L77.3702 129H74.5182L70.9992 116.373L67.3652 129L64.5592 129.023ZM88.0767 129.276C86.988 129.276 86.0067 129.031 85.1327 128.54C84.274 128.034 83.5917 127.336 83.0857 126.447C82.5797 125.542 82.3267 124.492 82.3267 123.296C82.3267 122.1 82.5797 121.057 83.0857 120.168C83.607 119.263 84.3047 118.566 85.1787 118.075C86.0527 117.569 87.0264 117.316 88.0997 117.316C89.1884 117.316 90.162 117.569 91.0207 118.075C91.8947 118.566 92.5847 119.263 93.0907 120.168C93.612 121.057 93.8727 122.1 93.8727 123.296C93.8727 124.492 93.612 125.542 93.0907 126.447C92.5847 127.336 91.8947 128.034 91.0207 128.54C90.1467 129.031 89.1654 129.276 88.0767 129.276ZM88.0767 127.183C88.6594 127.183 89.196 127.037 89.6867 126.746C90.1927 126.455 90.599 126.025 90.9057 125.458C91.2124 124.875 91.3657 124.155 91.3657 123.296C91.3657 122.437 91.2124 121.724 90.9057 121.157C90.6144 120.574 90.2157 120.137 89.7097 119.846C89.219 119.555 88.6824 119.409 88.0997 119.409C87.517 119.409 86.9727 119.555 86.4667 119.846C85.976 120.137 85.5774 120.574 85.2707 121.157C84.964 121.724 84.8107 122.437 84.8107 123.296C84.8107 124.155 84.964 124.875 85.2707 125.458C85.5774 126.025 85.976 126.455 86.4667 126.746C86.9574 127.037 87.494 127.183 88.0767 127.183ZM96.5093 129V117.592H98.6943L98.9013 119.754C99.2999 119.003 99.8519 118.412 100.557 117.983C101.278 117.538 102.144 117.316 103.156 117.316V119.869H102.489C101.815 119.869 101.209 119.984 100.672 120.214C100.151 120.429 99.7293 120.804 99.4073 121.341C99.1006 121.862 98.9473 122.591 98.9473 123.526V129H96.5093ZM105.247 129V112.44H107.685V122.307L112.055 117.592H114.976L110.123 122.767L115.689 129H112.607L107.685 123.158V129H105.247ZM122.038 129.276C120.949 129.276 119.968 129.031 119.094 128.54C118.235 128.034 117.553 127.336 117.047 126.447C116.541 125.542 116.288 124.492 116.288 123.296C116.288 122.1 116.541 121.057 117.047 120.168C117.568 119.263 118.266 118.566 119.14 118.075C120.014 117.569 120.987 117.316 122.061 117.316C123.149 117.316 124.123 117.569 124.982 118.075C125.856 118.566 126.546 119.263 127.052 120.168C127.573 121.057 127.834 122.1 127.834 123.296C127.834 124.492 127.573 125.542 127.052 126.447C126.546 127.336 125.856 128.034 124.982 128.54C124.108 129.031 123.126 129.276 122.038 129.276ZM122.038 127.183C122.62 127.183 123.157 127.037 123.648 126.746C124.154 126.455 124.56 126.025 124.867 125.458C125.173 124.875 125.327 124.155 125.327 123.296C125.327 122.437 125.173 121.724 124.867 121.157C124.575 120.574 124.177 120.137 123.671 119.846C123.18 119.555 122.643 119.409 122.061 119.409C121.478 119.409 120.934 119.555 120.428 119.846C119.937 120.137 119.538 120.574 119.232 121.157C118.925 121.724 118.772 122.437 118.772 123.296C118.772 124.155 118.925 124.875 119.232 125.458C119.538 126.025 119.937 126.455 120.428 126.746C120.918 127.037 121.455 127.183 122.038 127.183ZM134.679 129.276C133.299 129.276 132.211 128.847 131.413 127.988C130.631 127.129 130.24 125.849 130.24 124.147V117.592H132.678V123.894C132.678 126.102 133.583 127.206 135.392 127.206C136.297 127.206 137.041 126.884 137.623 126.24C138.206 125.596 138.497 124.676 138.497 123.48V117.592H140.935V129H138.773L138.589 126.999C138.237 127.704 137.715 128.264 137.025 128.678C136.351 129.077 135.569 129.276 134.679 129.276ZM148.821 129C147.701 129 146.812 128.732 146.153 128.195C145.493 127.643 145.164 126.669 145.164 125.274V119.639H143.209V117.592H145.164L145.463 114.694H147.602V117.592H150.822V119.639H147.602V125.274C147.602 125.903 147.732 126.34 147.993 126.585C148.269 126.815 148.736 126.93 149.396 126.93H150.707V129H148.821Z" fill="white"/>
<g clip-path="url(#clip0_472_7972)">
<path d="M83.3611 13.9225L91.9096 18.6354C93.9234 16.5726 96.1519 15.9682 97.8755 15.9157L83.8133 8.16406C83.9442 10.0835 83.6711 12.6968 83.3611 13.9225Z" fill="#B3B3B3"/>
<path d="M42.8185 34.9371C42.7204 31.5549 42.8327 28.9133 42.928 27.4351L63.2519 15.975C62.5394 14.7308 61.7572 12.7361 62.3958 10.418L37.9391 24.209L37.7926 25.5482C37.7471 25.9611 36.9578 33.4886 38.1581 43.5087C38.7682 41.7155 40.4179 37.2992 42.8185 34.9371Z" fill="#B3B3B3"/>
<path d="M75.0188 90.9996C86.9534 87.3295 97.0393 79.6218 103.314 68.8242C100.012 70.9125 96.4149 72.8363 92.6022 74.55C87.8465 79.5622 81.9802 83.221 75.0188 85.4895C72.0835 84.5333 69.3444 83.3303 66.7988 81.8889C64.155 82.201 61.5667 82.3641 59.0609 82.3641H59.0594C58.7636 82.3641 58.4792 82.3542 58.1891 82.3499C62.8324 86.0768 68.9761 89.1426 75.0188 90.9996Z" fill="#B3B3B3"/>
<path d="M78.6836 55.2985C57.7055 62.216 39.111 63.0303 37.1513 57.1172C36.8953 56.3441 36.938 55.4928 37.2508 54.5849C33.8035 58.2905 32.2818 61.7875 33.3243 64.5526C36.0491 71.7722 55.2267 71.2544 76.1593 63.3949C93.9361 56.72 107.26 46.8985 109.206 39.666C103.486 44.8967 92.2481 50.8254 78.6836 55.2985Z" fill="#747474"/>
<path d="M118.433 42.5488C116.887 38.1168 112.354 35.1149 106.004 33.6777C109.352 34.9588 111.662 36.9038 112.566 39.4943C115.728 48.5555 100.516 62.0727 78.5897 69.6839C63.5847 74.8919 49.3262 75.9843 40.8047 73.2519C47.2229 81.1185 65.8658 82.3173 85.4288 75.526C107.355 67.9148 122.132 53.1506 118.433 42.5488Z" fill="#747474"/>
<path d="M41.102 52.0137C41.4945 52.1569 45.2703 55.8172 47.9639 57.2131C48.9124 57.7054 50.9276 58.1977 53.2287 58.6659C57.3216 58.3155 61.9393 57.5338 66.8002 56.3875C64.9884 55.4341 61.7118 53.6863 60.3636 52.8251C57.5961 51.0575 54.7987 47.5079 53.1746 46.014C55.2467 45.3856 56.8452 43.8733 57.8833 42.9454C59.4178 47.5235 64.2944 51.9754 69.909 55.6157C72.5641 54.9177 83.6071 52.0052 89.8461 47.6739C91.7901 44.6096 93.9774 37.7346 94.5747 34.9044C103.11 36.2847 108.614 29.7418 109.705 29.2665C110.796 28.7912 115.298 25.7524 115.696 24.3834C116.095 23.0144 115.261 22.0383 115.055 21.7333C114.712 21.2254 114.372 16.7097 111.566 13.9078C109.858 12.2012 105.534 7.86283 104.279 6.62148C103.538 5.88802 102.867 4.21823 102.455 3.86924C102.129 3.59543 101.465 3.20529 99.1853 2.88325C96.9056 2.56121 94.5647 3.46208 94.3514 3.61529C94.1381 3.76851 93.2066 3.55571 92.8653 3.82526C92.524 4.09339 91.5171 7.68124 91.6949 8.22176C91.8712 8.76228 93.5266 10.0334 93.5266 10.0334C93.5266 10.0334 93.3588 12.1118 94.9445 11.9259C95.9129 11.8124 96.287 10.1554 96.3822 9.4858C97.611 9.5085 99.4441 9.29996 100.125 8.453C100.363 10.9797 102.293 14.0852 102.488 15.4641C102.682 16.8445 101.974 17.8504 103.029 20.8069C101.546 20.5671 101.108 18.7243 98.0817 18.6094C95.054 18.4944 93.6773 20.5487 93.4199 21.5588C92.4756 21.1828 90.5813 19.7769 88.0869 20.0564C82.2945 20.7062 80.8922 24.416 80.5609 25.4034C79.6663 25.053 78.3779 24.8345 77.6213 25.0771C77.3141 23.6599 77.7735 22.1405 77.7735 22.1405C77.7735 22.1405 78.3921 21.2013 79.3037 20.2976C81.0288 18.5867 81.0743 15.4003 81.1752 14.8328C81.3729 13.7262 81.0828 12.4665 81.0359 12.1884C80.9889 11.9103 81.5535 10.4973 81.4412 7.9366C81.3274 5.36595 80.0446 3.6536 80.0446 3.6536C80.0446 3.6536 80.7187 2.03062 79.5369 0.501284C76.8363 0.671526 76.4765 0.0217696 74.8794 0.000489381C73.2823 -0.0207909 68.329 0.643153 66.6935 3.71744C65.0581 6.79173 65.9469 10.3952 65.9469 10.3952C65.9469 10.3952 65.4036 10.2136 65.2458 10.2973C65.0879 10.381 64.3811 10.3753 64.2617 12.0863C64.1422 13.7972 65.9611 16.0685 65.9611 16.0685C65.9611 16.0685 66.2868 17.4957 66.0934 19.4492C65.9 21.4013 63.3671 24.5834 59.2927 24.9239C58.4508 24.5735 55.4799 23.7464 51.5477 26.0887C48.6294 27.8251 47.9255 32.494 47.641 33.2473C47.3566 33.9992 44.9617 35.7158 43.5509 37.4211C42.1402 39.1264 41.2243 41.9623 40.9314 42.8674C40.6384 43.7725 39.6528 45.7076 39.4566 46.2056C38.9958 47.3774 39.0356 50.3751 39.2347 50.6914C39.4324 51.0078 40.7095 51.8718 41.102 52.0137Z" fill="#B3B3B3"/>
</g>
<defs>
<clipPath id="clip0_472_7972">
<rect width="86" height="91" fill="white" transform="translate(33)"/>
</clipPath>
</defs>
</svg>
