<svg width="20" height="24" viewBox="0 0 20 24" fill="none" xmlns="http://www.w3.org/2000/svg">
<path d="M0.22994 0.0592955C0.159627 0.0967955 0.0799396 0.195233 0.0518145 0.27492C0.0143145 0.382733 0.000252048 3.66398 0.000252048 11.9984C0.000252048 24.6171 -0.0184979 23.8202 0.26744 23.9374C0.365877 23.9749 0.984627 23.989 2.65806 23.9796L4.91744 23.9655L5.02525 23.8577L5.13306 23.7499V11.989V0.228045L5.02525 0.120233L4.91744 0.0124205L2.63463 0.00304546C0.712752 -0.00632954 0.333065 0.00304546 0.22994 0.0592955ZM4.31275 1.69992V2.56711H3.86744H3.42213V2.98898V3.41086H3.86744H4.31275V4.27805V5.14523H3.44556H2.57838V5.56711V5.98898H3.44556H4.31275L4.30338 6.84211L4.28931 7.69992L3.85338 7.71398L3.41744 7.72805L3.4315 8.13586L3.44556 8.54367L3.8815 8.55773L4.31275 8.5718V9.41086V10.2546L3.45963 10.264L2.60181 10.278L2.58775 10.7093L2.57369 11.1452H3.44556H4.31275V11.989V12.828L3.8815 12.8421L3.44556 12.8562V13.278V13.6999L3.8815 13.714L4.31275 13.728V14.5671V15.4109H3.44556H2.57838V15.8327V16.2546L3.43619 16.264L4.28931 16.278L4.30338 17.1312L4.31275 17.989H3.86744H3.42213V18.4109V18.8327H3.86744H4.31275V19.6999V20.5671H3.44556H2.57838V20.989V21.4109H3.44556H4.31275V22.278V23.1452H2.60181H0.890877V11.989V0.832733H2.60181H4.31275V1.69992Z" fill="black"/>
<path d="M6.00967 1.26426L6.02373 1.7002H6.44561H6.86748V1.27832V0.856445L6.43154 0.842383L5.99561 0.82832L6.00967 1.26426Z" fill="black"/>
<path d="M7.73486 1.27832V1.72363H8.15674H8.57861V1.27832V0.833008H8.15674H7.73486V1.27832Z" fill="black"/>
<path d="M9.44101 0.893945C9.42695 0.931445 9.42226 1.12363 9.43164 1.32988L9.4457 1.7002H9.86757H10.2894L10.3035 1.26426L10.3176 0.833008H9.89101C9.58164 0.833008 9.45976 0.851758 9.44101 0.893945Z" fill="black"/>
<path d="M11.1567 1.27832V1.72363H11.5786H12.0005V1.27832V0.833008H11.5786H11.1567V1.27832Z" fill="black"/>
<path d="M12.8911 1.27852V1.72852L13.3036 1.71445L13.7114 1.70039L13.7255 1.26445L13.7396 0.833203H13.313H12.8911V1.27852Z" fill="black"/>
<path d="M14.5878 1.26445L14.6019 1.70039L15.0144 1.71445L15.4222 1.72852V1.27852V0.833203H15.0003H14.5737L14.5878 1.26445Z" fill="black"/>
<path d="M9.68463 2.6426C8.58776 2.90979 7.73463 3.98323 7.73463 5.09885C7.73463 5.62385 7.93151 6.23323 8.23151 6.63167C8.29245 6.71135 8.34401 6.79104 8.34401 6.80042C8.34401 6.81448 8.21276 6.83792 8.05338 6.85667C7.08776 6.95979 6.41276 7.48948 6.10338 8.37542C6.03776 8.56292 6.02838 8.99417 6.00963 11.7317C6.00026 13.4567 6.00963 14.9426 6.0237 15.0317C6.04245 15.116 6.10338 15.2379 6.16432 15.2989C6.27213 15.4067 6.30026 15.4114 7.00807 15.4114H7.73463V19.5551V23.7035L7.84713 23.8348L7.95963 23.966L9.3987 23.9801C10.9596 23.9942 11.2034 23.9707 11.6487 23.7598C12.1643 23.516 12.5393 23.0942 12.7596 22.5082C12.8628 22.2317 12.8628 22.2129 12.8815 18.8239L12.8956 15.4114H13.5987H14.3065L14.4424 15.2754L14.5784 15.1395V11.9567C14.5784 9.2801 14.5643 8.73167 14.5081 8.47854C14.3018 7.61135 13.5706 6.97854 12.6378 6.86604L12.2346 6.81917L12.3471 6.67385C12.9612 5.8676 13.0221 4.7051 12.4924 3.80979C12.1643 3.25198 11.4659 2.74573 10.8378 2.61917C10.5049 2.54885 10.0221 2.55823 9.68463 2.6426ZM10.8753 3.52854C11.869 3.86135 12.3143 5.13167 11.7518 6.0176C11.0956 7.05354 9.64713 7.11448 8.92995 6.14417C8.70026 5.8301 8.60651 5.52073 8.60651 5.09417C8.60651 4.79885 8.62995 4.69104 8.75182 4.43792C8.98151 3.94104 9.44557 3.56604 9.95651 3.45823C10.1956 3.40667 10.5987 3.43948 10.8753 3.52854ZM9.52057 8.88167C9.94245 10.152 9.9987 10.2551 10.294 10.2551C10.5987 10.2551 10.6503 10.1614 11.0721 8.88635L11.4612 7.71917L12.1409 7.73323C12.6846 7.7426 12.8534 7.76604 12.994 7.83167C13.2378 7.95354 13.4956 8.22073 13.6128 8.46917C13.7112 8.6801 13.7112 8.74573 13.7253 11.6239L13.7393 14.5676H13.3128H12.8909V11.7785V8.98948H12.4456H12.0003V15.5614C12.0003 22.077 11.9956 22.1379 11.9018 22.3489C11.7424 22.7051 11.3909 23.0051 11.0628 23.0707C10.9737 23.0895 10.8612 23.1176 10.819 23.127C10.7393 23.1504 10.7346 22.9442 10.7346 19.2832V15.4114H10.3128H9.89088L9.88151 19.2645L9.86745 23.1223L9.22526 23.1364L8.57838 23.1504V16.0676V8.98948H8.15651H7.73463V11.7785V14.5676H7.31276H6.89088V11.6239V8.68479L7.00338 8.45042C7.13932 8.16917 7.35963 7.94885 7.64088 7.82229C7.81901 7.7426 7.95026 7.72385 8.49401 7.72385H9.13151L9.52057 8.88167ZM10.5378 7.7801C10.5237 7.81292 10.4674 7.98635 10.4065 8.16917C10.3456 8.34729 10.2846 8.46448 10.2753 8.42698C10.2612 8.38948 10.2049 8.21604 10.144 8.03792L10.0362 7.72385H10.2987C10.4862 7.72385 10.5518 7.73792 10.5378 7.7801Z" fill="black"/>
<path d="M13.313 23.5674V23.9893H13.7349H14.1567V23.5674V23.1455H13.7349H13.313V23.5674Z" fill="black"/>
<path d="M15.0005 23.5674V23.9893H15.4458H15.8911V23.5674V23.1455H15.4458H15.0005V23.5674Z" fill="black"/>
<path d="M16.7349 23.5674V23.9893H17.1567H17.5786V23.5674V23.1455H17.1567H16.7349V23.5674Z" fill="black"/>
<path d="M18.4224 23.5674V23.9893H18.8677H19.313V23.5674V23.1455H18.8677H18.4224V23.5674Z" fill="black"/>
</svg>
